<?xml version="1.0" encoding="UTF-8" standalone="no"?>
<!DOCTYPE svg PUBLIC "-//W3C//DTD SVG 1.1//EN"
 "http://www.w3.org/Graphics/SVG/1.1/DTD/svg11.dtd">
<!-- Generated by graphviz version 2.47.0 (20210316.0004)
 -->
<!-- Title: dependencies Pages: 1 -->
<svg width="710pt" height="211pt"
 viewBox="0.00 0.00 710.00 211.00" xmlns="http://www.w3.org/2000/svg" xmlns:xlink="http://www.w3.org/1999/xlink">
<g id="graph0" class="graph" transform="scale(1 1) rotate(0) translate(4 207)">
<title>dependencies</title>
<polygon fill="white" stroke="transparent" points="-4,4 -4,-207 706,-207 706,4 -4,4"/>
<text text-anchor="start" x="330.01" y="-42.4" font-family="sans-serif" font-weight="bold" font-size="14.00">Legend</text>
<polygon fill="#ffffb3" stroke="transparent" points="117,-10 117,-30 137,-30 137,-10 117,-10"/>
<text text-anchor="start" x="140.63" y="-15.4" font-family="sans-serif" font-size="14.00"> &#160;Declarations</text>
<polygon fill="#8dd3c7" stroke="transparent" points="230,-10 230,-30 250,-30 250,-10 230,-10"/>
<text text-anchor="start" x="253.73" y="-15.4" font-family="sans-serif" font-size="14.00"> &#160;Module</text>
<polygon fill="#80b1d3" stroke="transparent" points="316,-10 316,-30 336,-30 336,-10 316,-10"/>
<text text-anchor="start" x="339.78" y="-15.4" font-family="sans-serif" font-size="14.00"> &#160;Bootstrap</text>
<polygon fill="#fdb462" stroke="transparent" points="413,-10 413,-30 433,-30 433,-10 413,-10"/>
<text text-anchor="start" x="436.67" y="-15.4" font-family="sans-serif" font-size="14.00"> &#160;Providers</text>
<polygon fill="#fb8072" stroke="transparent" points="509,-10 509,-30 529,-30 529,-10 509,-10"/>
<text text-anchor="start" x="532.73" y="-15.4" font-family="sans-serif" font-size="14.00"> &#160;Exports</text>
<g id="clust1" class="cluster">
<title>cluster_PokemonsModule</title>
<polygon fill="none" stroke="black" stroke-dasharray="1,5" points="8,-70 8,-195 694,-195 694,-70 8,-70"/>
</g>
<g id="clust2" class="cluster">
<title>cluster_PokemonsModule_declarations</title>
<polygon fill="none" stroke="black" points="320,-78 320,-130 686,-130 686,-78 320,-78"/>
</g>
<g id="clust5" class="cluster">
<title>cluster_PokemonsModule_imports</title>
<polygon fill="none" stroke="black" points="16,-78 16,-130 312,-130 312,-78 16,-78"/>
</g>
<!-- PokemonsFormComponent -->
<g id="node1" class="node">
<title>PokemonsFormComponent</title>
<polygon fill="#ffffb3" stroke="black" points="678,-122 508,-122 508,-86 678,-86 678,-122"/>
<text text-anchor="middle" x="593" y="-99.8" font-family="Times,serif" font-size="14.00">PokemonsFormComponent</text>
</g>
<!-- PokemonsModule -->
<g id="node3" class="node">
<title>PokemonsModule</title>
<polygon fill="#8dd3c7" stroke="black" points="373.88,-187 370.88,-191 349.88,-191 346.88,-187 256.12,-187 256.12,-151 373.88,-151 373.88,-187"/>
<text text-anchor="middle" x="315" y="-164.8" font-family="Times,serif" font-size="14.00">PokemonsModule</text>
</g>
<!-- PokemonsFormComponent&#45;&gt;PokemonsModule -->
<g id="edge1" class="edge">
<title>PokemonsFormComponent&#45;&gt;PokemonsModule</title>
<path fill="none" stroke="black" d="M593,-122.11C593,-141.34 593,-169 593,-169 593,-169 383.96,-169 383.96,-169"/>
<polygon fill="black" stroke="black" points="383.96,-165.5 373.96,-169 383.96,-172.5 383.96,-165.5"/>
</g>
<!-- PokemonsListComponent -->
<g id="node2" class="node">
<title>PokemonsListComponent</title>
<polygon fill="#ffffb3" stroke="black" points="489.94,-122 328.06,-122 328.06,-86 489.94,-86 489.94,-122"/>
<text text-anchor="middle" x="409" y="-99.8" font-family="Times,serif" font-size="14.00">PokemonsListComponent</text>
</g>
<!-- PokemonsListComponent&#45;&gt;PokemonsModule -->
<g id="edge2" class="edge">
<title>PokemonsListComponent&#45;&gt;PokemonsModule</title>
<path fill="none" stroke="black" d="M351.11,-122.11C351.11,-122.11 351.11,-140.99 351.11,-140.99"/>
<polygon fill="black" stroke="black" points="347.61,-140.99 351.11,-150.99 354.61,-140.99 347.61,-140.99"/>
</g>
<!-- PokemonsRoutingModule -->
<g id="node4" class="node">
<title>PokemonsRoutingModule</title>
<polygon fill="#8dd3c7" stroke="black" points="303.5,-122 300.5,-126 279.5,-126 276.5,-122 140.5,-122 140.5,-86 303.5,-86 303.5,-122"/>
<text text-anchor="middle" x="222" y="-99.8" font-family="Times,serif" font-size="14.00">PokemonsRoutingModule</text>
</g>
<!-- PokemonsRoutingModule&#45;&gt;PokemonsModule -->
<g id="edge3" class="edge">
<title>PokemonsRoutingModule&#45;&gt;PokemonsModule</title>
<path fill="none" stroke="black" d="M279.78,-122.11C279.78,-122.11 279.78,-140.99 279.78,-140.99"/>
<polygon fill="black" stroke="black" points="276.28,-140.99 279.78,-150.99 283.28,-140.99 276.28,-140.99"/>
</g>
<!-- SharedModule -->
<g id="node5" class="node">
<title>SharedModule</title>
<polygon fill="#8dd3c7" stroke="black" points="122.42,-122 119.42,-126 98.42,-126 95.42,-122 23.58,-122 23.58,-86 122.42,-86 122.42,-122"/>
<text text-anchor="middle" x="73" y="-99.8" font-family="Times,serif" font-size="14.00">SharedModule</text>
</g>
<!-- SharedModule&#45;&gt;PokemonsModule -->
<g id="edge4" class="edge">
<title>SharedModule&#45;&gt;PokemonsModule</title>
<path fill="none" stroke="black" d="M73,-122.11C73,-141.34 73,-169 73,-169 73,-169 246.11,-169 246.11,-169"/>
<polygon fill="black" stroke="black" points="246.11,-172.5 256.11,-169 246.11,-165.5 246.11,-172.5"/>
</g>
</g>
</svg>
