<?xml version="1.0" encoding="UTF-8" standalone="no"?>
<!DOCTYPE svg PUBLIC "-//W3C//DTD SVG 1.1//EN"
 "http://www.w3.org/Graphics/SVG/1.1/DTD/svg11.dtd">
<!-- Generated by graphviz version 2.47.0 (20210316.0004)
 -->
<!-- Title: dependencies Pages: 1 -->
<svg width="710pt" height="211pt"
 viewBox="0.00 0.00 710.00 211.00" xmlns="http://www.w3.org/2000/svg" xmlns:xlink="http://www.w3.org/1999/xlink">
<g id="graph0" class="graph" transform="scale(1 1) rotate(0) translate(4 207)">
<title>dependencies</title>
<polygon fill="white" stroke="transparent" points="-4,4 -4,-207 706,-207 706,4 -4,4"/>
<text text-anchor="start" x="330.01" y="-42.4" font-family="sans-serif" font-weight="bold" font-size="14.00">Legend</text>
<polygon fill="#ffffb3" stroke="transparent" points="117,-10 117,-30 137,-30 137,-10 117,-10"/>
<text text-anchor="start" x="140.63" y="-15.4" font-family="sans-serif" font-size="14.00"> &#160;Declarations</text>
<polygon fill="#8dd3c7" stroke="transparent" points="230,-10 230,-30 250,-30 250,-10 230,-10"/>
<text text-anchor="start" x="253.73" y="-15.4" font-family="sans-serif" font-size="14.00"> &#160;Module</text>
<polygon fill="#80b1d3" stroke="transparent" points="316,-10 316,-30 336,-30 336,-10 316,-10"/>
<text text-anchor="start" x="339.78" y="-15.4" font-family="sans-serif" font-size="14.00"> &#160;Bootstrap</text>
<polygon fill="#fdb462" stroke="transparent" points="413,-10 413,-30 433,-30 433,-10 413,-10"/>
<text text-anchor="start" x="436.67" y="-15.4" font-family="sans-serif" font-size="14.00"> &#160;Providers</text>
<polygon fill="#fb8072" stroke="transparent" points="509,-10 509,-30 529,-30 529,-10 509,-10"/>
<text text-anchor="start" x="532.73" y="-15.4" font-family="sans-serif" font-size="14.00"> &#160;Exports</text>
<g id="clust1" class="cluster">
<title>cluster_PokemonsModule</title>
<polygon fill="none" stroke="black" stroke-dasharray="1,5" points="8,-70 8,-195 694,-195 694,-70 8,-70"/>
</g>
<g id="clust5" class="cluster">
<title>cluster_PokemonsModule_imports</title>
<polygon fill="none" stroke="black" points="390,-78 390,-130 686,-130 686,-78 390,-78"/>
</g>
<g id="clust2" class="cluster">
<title>cluster_PokemonsModule_declarations</title>
<polygon fill="none" stroke="black" points="16,-78 16,-130 382,-130 382,-78 16,-78"/>
</g>
<!-- PokemonsFormComponent -->
<g id="node1" class="node">
<title>PokemonsFormComponent</title>
<polygon fill="#ffffb3" stroke="black" points="374,-122 204,-122 204,-86 374,-86 374,-122"/>
<text text-anchor="middle" x="289" y="-99.8" font-family="Times,serif" font-size="14.00">PokemonsFormComponent</text>
</g>
<!-- PokemonsModule -->
<g id="node3" class="node">
<title>PokemonsModule</title>
<polygon fill="#8dd3c7" stroke="black" points="426.88,-187 423.88,-191 402.88,-191 399.88,-187 309.12,-187 309.12,-151 426.88,-151 426.88,-187"/>
<text text-anchor="middle" x="368" y="-164.8" font-family="Times,serif" font-size="14.00">PokemonsModule</text>
</g>
<!-- PokemonsFormComponent&#45;&gt;PokemonsModule -->
<g id="edge1" class="edge">
<title>PokemonsFormComponent&#45;&gt;PokemonsModule</title>
<path fill="none" stroke="black" d="M341.53,-122.11C341.53,-122.11 341.53,-140.99 341.53,-140.99"/>
<polygon fill="black" stroke="black" points="338.03,-140.99 341.53,-150.99 345.03,-140.99 338.03,-140.99"/>
</g>
<!-- PokemonsListComponent -->
<g id="node2" class="node">
<title>PokemonsListComponent</title>
<polygon fill="#ffffb3" stroke="black" points="185.94,-122 24.06,-122 24.06,-86 185.94,-86 185.94,-122"/>
<text text-anchor="middle" x="105" y="-99.8" font-family="Times,serif" font-size="14.00">PokemonsListComponent</text>
</g>
<!-- PokemonsListComponent&#45;&gt;PokemonsModule -->
<g id="edge2" class="edge">
<title>PokemonsListComponent&#45;&gt;PokemonsModule</title>
<path fill="none" stroke="black" d="M105,-122.11C105,-141.34 105,-169 105,-169 105,-169 298.98,-169 298.98,-169"/>
<polygon fill="black" stroke="black" points="298.98,-172.5 308.98,-169 298.98,-165.5 298.98,-172.5"/>
</g>
<!-- PokemonsRoutingModule -->
<g id="node4" class="node">
<title>PokemonsRoutingModule</title>
<polygon fill="#8dd3c7" stroke="black" points="677.5,-122 674.5,-126 653.5,-126 650.5,-122 514.5,-122 514.5,-86 677.5,-86 677.5,-122"/>
<text text-anchor="middle" x="596" y="-99.8" font-family="Times,serif" font-size="14.00">PokemonsRoutingModule</text>
</g>
<!-- PokemonsRoutingModule&#45;&gt;PokemonsModule -->
<g id="edge3" class="edge">
<title>PokemonsRoutingModule&#45;&gt;PokemonsModule</title>
<path fill="none" stroke="black" d="M596,-122.11C596,-141.34 596,-169 596,-169 596,-169 437.01,-169 437.01,-169"/>
<polygon fill="black" stroke="black" points="437.01,-165.5 427.01,-169 437.01,-172.5 437.01,-165.5"/>
</g>
<!-- SharedModule -->
<g id="node5" class="node">
<title>SharedModule</title>
<polygon fill="#8dd3c7" stroke="black" points="496.42,-122 493.42,-126 472.42,-126 469.42,-122 397.58,-122 397.58,-86 496.42,-86 496.42,-122"/>
<text text-anchor="middle" x="447" y="-99.8" font-family="Times,serif" font-size="14.00">SharedModule</text>
</g>
<!-- SharedModule&#45;&gt;PokemonsModule -->
<g id="edge4" class="edge">
<title>SharedModule&#45;&gt;PokemonsModule</title>
<path fill="none" stroke="black" d="M412.37,-122.11C412.37,-122.11 412.37,-140.99 412.37,-140.99"/>
<polygon fill="black" stroke="black" points="408.87,-140.99 412.37,-150.99 415.87,-140.99 408.87,-140.99"/>
</g>
</g>
</svg>
