<?xml version="1.0" encoding="UTF-8" standalone="no"?>
<!DOCTYPE svg PUBLIC "-//W3C//DTD SVG 1.1//EN"
 "http://www.w3.org/Graphics/SVG/1.1/DTD/svg11.dtd">
<!-- Generated by graphviz version 2.47.0 (20210316.0004)
 -->
<!-- Title: dependencies Pages: 1 -->
<svg width="1009pt" height="360pt"
 viewBox="0.00 0.00 1009.00 360.00" xmlns="http://www.w3.org/2000/svg" xmlns:xlink="http://www.w3.org/1999/xlink">
<g id="graph0" class="graph" transform="scale(1 1) rotate(0) translate(4 356)">
<title>dependencies</title>
<polygon fill="white" stroke="transparent" points="-4,4 -4,-356 1005,-356 1005,4 -4,4"/>
<text text-anchor="start" x="479.51" y="-42.4" font-family="sans-serif" font-weight="bold" font-size="14.00">Legend</text>
<polygon fill="#ffffb3" stroke="transparent" points="266.5,-10 266.5,-30 286.5,-30 286.5,-10 266.5,-10"/>
<text text-anchor="start" x="290.13" y="-15.4" font-family="sans-serif" font-size="14.00"> &#160;Declarations</text>
<polygon fill="#8dd3c7" stroke="transparent" points="379.5,-10 379.5,-30 399.5,-30 399.5,-10 379.5,-10"/>
<text text-anchor="start" x="403.23" y="-15.4" font-family="sans-serif" font-size="14.00"> &#160;Module</text>
<polygon fill="#80b1d3" stroke="transparent" points="465.5,-10 465.5,-30 485.5,-30 485.5,-10 465.5,-10"/>
<text text-anchor="start" x="489.28" y="-15.4" font-family="sans-serif" font-size="14.00"> &#160;Bootstrap</text>
<polygon fill="#fdb462" stroke="transparent" points="562.5,-10 562.5,-30 582.5,-30 582.5,-10 562.5,-10"/>
<text text-anchor="start" x="586.17" y="-15.4" font-family="sans-serif" font-size="14.00"> &#160;Providers</text>
<polygon fill="#fb8072" stroke="transparent" points="658.5,-10 658.5,-30 678.5,-30 678.5,-10 658.5,-10"/>
<text text-anchor="start" x="682.23" y="-15.4" font-family="sans-serif" font-size="14.00"> &#160;Exports</text>
<g id="clust1" class="cluster">
<title>cluster_AppModule</title>
<polygon fill="none" stroke="black" stroke-dasharray="1,5" points="586,-146 586,-344 993,-344 993,-146 586,-146"/>
</g>
<g id="clust2" class="cluster">
<title>cluster_AppModule_declarations</title>
<polygon fill="none" stroke="black" points="863,-154 863,-206 985,-206 985,-154 863,-154"/>
</g>
<g id="clust4" class="cluster">
<title>cluster_AppModule_imports</title>
<polygon fill="none" stroke="black" points="594,-154 594,-206 855,-206 855,-154 594,-154"/>
</g>
<g id="clust6" class="cluster">
<title>cluster_AppModule_bootstrap</title>
<polygon fill="none" stroke="black" points="721,-284 721,-336 845,-336 845,-284 721,-284"/>
</g>
<g id="clust14" class="cluster">
<title>cluster_PokemonsModule</title>
<polygon fill="none" stroke="black" stroke-dasharray="1,5" points="8,-146 8,-271 578,-271 578,-146 8,-146"/>
</g>
<g id="clust15" class="cluster">
<title>cluster_PokemonsModule_declarations</title>
<polygon fill="none" stroke="black" points="204,-154 204,-206 570,-206 570,-154 204,-154"/>
</g>
<g id="clust18" class="cluster">
<title>cluster_PokemonsModule_imports</title>
<polygon fill="none" stroke="black" points="16,-154 16,-206 196,-206 196,-154 16,-154"/>
</g>
<g id="clust28" class="cluster">
<title>cluster_SharedModule</title>
<polygon fill="none" stroke="black" stroke-dasharray="1,5" points="413,-70 413,-138 885,-138 885,-70 413,-70"/>
</g>
<g id="clust29" class="cluster">
<title>cluster_SharedModule_declarations</title>
<polygon fill="none" stroke="black" points="739,-78 739,-130 877,-130 877,-78 739,-78"/>
</g>
<g id="clust31" class="cluster">
<title>cluster_SharedModule_imports</title>
<polygon fill="none" stroke="black" points="571,-78 571,-130 731,-130 731,-78 571,-78"/>
</g>
<g id="clust32" class="cluster">
<title>cluster_SharedModule_exports</title>
<polygon fill="none" stroke="black" points="421,-78 421,-130 563,-130 563,-78 421,-78"/>
</g>
<!-- AppComponent -->
<g id="node1" class="node">
<title>AppComponent</title>
<polygon fill="#ffffb3" stroke="black" points="976.94,-198 871.06,-198 871.06,-162 976.94,-162 976.94,-198"/>
<text text-anchor="middle" x="924" y="-175.8" font-family="Times,serif" font-size="14.00">AppComponent</text>
</g>
<!-- AppModule -->
<g id="node2" class="node">
<title>AppModule</title>
<polygon fill="#8dd3c7" stroke="black" points="824.66,-263 821.66,-267 800.66,-267 797.66,-263 741.34,-263 741.34,-227 824.66,-227 824.66,-263"/>
<text text-anchor="middle" x="783" y="-240.8" font-family="Times,serif" font-size="14.00">AppModule</text>
</g>
<!-- AppComponent&#45;&gt;AppModule -->
<g id="edge1" class="edge">
<title>AppComponent&#45;&gt;AppModule</title>
<path fill="none" stroke="black" d="M924,-198.11C924,-217.34 924,-245 924,-245 924,-245 834.92,-245 834.92,-245"/>
<polygon fill="black" stroke="black" points="834.92,-241.5 824.92,-245 834.92,-248.5 834.92,-241.5"/>
</g>
<!-- AppComponent  -->
<g id="node5" class="node">
<title>AppComponent </title>
<polygon fill="#80b1d3" stroke="black" points="837.44,-328 728.56,-328 728.56,-292 837.44,-292 837.44,-328"/>
<text text-anchor="middle" x="783" y="-305.8" font-family="Times,serif" font-size="14.00">AppComponent </text>
</g>
<!-- AppModule&#45;&gt;AppComponent  -->
<g id="edge4" class="edge">
<title>AppModule&#45;&gt;AppComponent </title>
<path fill="none" stroke="black" stroke-dasharray="1,5" d="M783,-263.11C783,-263.11 783,-281.99 783,-281.99"/>
<polygon fill="black" stroke="black" points="779.5,-281.99 783,-291.99 786.5,-281.99 779.5,-281.99"/>
</g>
<!-- AppRoutingModule -->
<g id="node3" class="node">
<title>AppRoutingModule</title>
<polygon fill="#8dd3c7" stroke="black" points="847.27,-198 844.27,-202 823.27,-202 820.27,-198 718.73,-198 718.73,-162 847.27,-162 847.27,-198"/>
<text text-anchor="middle" x="783" y="-175.8" font-family="Times,serif" font-size="14.00">AppRoutingModule</text>
</g>
<!-- AppRoutingModule&#45;&gt;AppModule -->
<g id="edge2" class="edge">
<title>AppRoutingModule&#45;&gt;AppModule</title>
<path fill="none" stroke="black" d="M783,-198.11C783,-198.11 783,-216.99 783,-216.99"/>
<polygon fill="black" stroke="black" points="779.5,-216.99 783,-226.99 786.5,-216.99 779.5,-216.99"/>
</g>
<!-- SharedModule -->
<g id="node4" class="node">
<title>SharedModule</title>
<polygon fill="#8dd3c7" stroke="black" points="700.42,-198 697.42,-202 676.42,-202 673.42,-198 601.58,-198 601.58,-162 700.42,-162 700.42,-198"/>
<text text-anchor="middle" x="651" y="-175.8" font-family="Times,serif" font-size="14.00">SharedModule</text>
</g>
<!-- SharedModule&#45;&gt;AppModule -->
<g id="edge3" class="edge">
<title>SharedModule&#45;&gt;AppModule</title>
<path fill="none" stroke="black" d="M667.4,-198.28C667.4,-219.32 667.4,-251 667.4,-251 667.4,-251 731.27,-251 731.27,-251"/>
<polygon fill="black" stroke="black" points="731.27,-254.5 741.27,-251 731.27,-247.5 731.27,-254.5"/>
</g>
<!-- PokemonsModule -->
<g id="node8" class="node">
<title>PokemonsModule</title>
<polygon fill="#8dd3c7" stroke="black" points="443.88,-263 440.88,-267 419.88,-267 416.88,-263 326.12,-263 326.12,-227 443.88,-227 443.88,-263"/>
<text text-anchor="middle" x="385" y="-240.8" font-family="Times,serif" font-size="14.00">PokemonsModule</text>
</g>
<!-- SharedModule&#45;&gt;PokemonsModule -->
<g id="edge8" class="edge">
<title>SharedModule&#45;&gt;PokemonsModule</title>
<path fill="none" stroke="black" d="M634.6,-198.02C634.6,-215.37 634.6,-239 634.6,-239 634.6,-239 454.15,-239 454.15,-239"/>
<polygon fill="black" stroke="black" points="454.15,-235.5 444.15,-239 454.15,-242.5 454.15,-235.5"/>
</g>
<!-- HeaderComponent  -->
<g id="node12" class="node">
<title>HeaderComponent </title>
<polygon fill="#fb8072" stroke="black" points="554.74,-122 429.26,-122 429.26,-86 554.74,-86 554.74,-122"/>
<text text-anchor="middle" x="492" y="-99.8" font-family="Times,serif" font-size="14.00">HeaderComponent </text>
</g>
<!-- SharedModule&#45;&gt;HeaderComponent  -->
<g id="edge11" class="edge">
<title>SharedModule&#45;&gt;HeaderComponent </title>
<path fill="none" stroke="black" stroke-dasharray="5,2" d="M601.46,-180C584.92,-180 570.61,-180 570.61,-180 570.61,-180 570.61,-104 570.61,-104 570.61,-104 564.71,-104 564.71,-104"/>
<polygon fill="black" stroke="black" points="564.71,-100.5 554.71,-104 564.71,-107.5 564.71,-100.5"/>
</g>
<!-- PokemonsFormComponent -->
<g id="node6" class="node">
<title>PokemonsFormComponent</title>
<polygon fill="#ffffb3" stroke="black" points="562,-198 392,-198 392,-162 562,-162 562,-198"/>
<text text-anchor="middle" x="477" y="-175.8" font-family="Times,serif" font-size="14.00">PokemonsFormComponent</text>
</g>
<!-- PokemonsFormComponent&#45;&gt;PokemonsModule -->
<g id="edge5" class="edge">
<title>PokemonsFormComponent&#45;&gt;PokemonsModule</title>
<path fill="none" stroke="black" d="M417.97,-198.11C417.97,-198.11 417.97,-216.99 417.97,-216.99"/>
<polygon fill="black" stroke="black" points="414.47,-216.99 417.97,-226.99 421.47,-216.99 414.47,-216.99"/>
</g>
<!-- PokemonsListComponent -->
<g id="node7" class="node">
<title>PokemonsListComponent</title>
<polygon fill="#ffffb3" stroke="black" points="373.94,-198 212.06,-198 212.06,-162 373.94,-162 373.94,-198"/>
<text text-anchor="middle" x="293" y="-175.8" font-family="Times,serif" font-size="14.00">PokemonsListComponent</text>
</g>
<!-- PokemonsListComponent&#45;&gt;PokemonsModule -->
<g id="edge6" class="edge">
<title>PokemonsListComponent&#45;&gt;PokemonsModule</title>
<path fill="none" stroke="black" d="M349.89,-198.11C349.89,-198.11 349.89,-216.99 349.89,-216.99"/>
<polygon fill="black" stroke="black" points="346.39,-216.99 349.89,-226.99 353.39,-216.99 346.39,-216.99"/>
</g>
<!-- PokemonsRoutingModule -->
<g id="node9" class="node">
<title>PokemonsRoutingModule</title>
<polygon fill="#8dd3c7" stroke="black" points="187.5,-198 184.5,-202 163.5,-202 160.5,-198 24.5,-198 24.5,-162 187.5,-162 187.5,-198"/>
<text text-anchor="middle" x="106" y="-175.8" font-family="Times,serif" font-size="14.00">PokemonsRoutingModule</text>
</g>
<!-- PokemonsRoutingModule&#45;&gt;PokemonsModule -->
<g id="edge7" class="edge">
<title>PokemonsRoutingModule&#45;&gt;PokemonsModule</title>
<path fill="none" stroke="black" d="M106,-198.11C106,-217.34 106,-245 106,-245 106,-245 315.83,-245 315.83,-245"/>
<polygon fill="black" stroke="black" points="315.83,-248.5 325.83,-245 315.83,-241.5 315.83,-248.5"/>
</g>
<!-- HeaderComponent -->
<g id="node10" class="node">
<title>HeaderComponent</title>
<polygon fill="#ffffb3" stroke="black" points="868.74,-122 747.26,-122 747.26,-86 868.74,-86 868.74,-122"/>
<text text-anchor="middle" x="808" y="-99.8" font-family="Times,serif" font-size="14.00">HeaderComponent</text>
</g>
<!-- HeaderComponent&#45;&gt;SharedModule -->
<g id="edge9" class="edge">
<title>HeaderComponent&#45;&gt;SharedModule</title>
<path fill="none" stroke="black" d="M797.26,-122.11C797.26,-131.9 797.26,-142 797.26,-142 797.26,-142 667.4,-142 667.4,-142 667.4,-142 667.4,-151.89 667.4,-151.89"/>
<polygon fill="black" stroke="black" points="663.9,-151.89 667.4,-161.89 670.9,-151.89 663.9,-151.89"/>
</g>
<!-- SharedRoutingModule -->
<g id="node11" class="node">
<title>SharedRoutingModule</title>
<polygon fill="#8dd3c7" stroke="black" points="722.54,-122 719.54,-126 698.54,-126 695.54,-122 579.46,-122 579.46,-86 722.54,-86 722.54,-122"/>
<text text-anchor="middle" x="651" y="-99.8" font-family="Times,serif" font-size="14.00">SharedRoutingModule</text>
</g>
<!-- SharedRoutingModule&#45;&gt;SharedModule -->
<g id="edge10" class="edge">
<title>SharedRoutingModule&#45;&gt;SharedModule</title>
<path fill="none" stroke="black" d="M634.6,-122.01C634.6,-122.01 634.6,-151.85 634.6,-151.85"/>
<polygon fill="black" stroke="black" points="631.1,-151.85 634.6,-161.85 638.1,-151.85 631.1,-151.85"/>
</g>
</g>
</svg>
